<svg width="1399" height="846" viewBox="0 0 1399 846" fill="none" xmlns="http://www.w3.org/2000/svg">
<path d="M117.392 86.3912C124.388 88.2991 130.366 90.7159 135.454 93.7686C140.415 96.8213 144.358 100.51 147.156 104.58C149.954 108.778 152.117 113.23 153.389 117.809C154.661 122.515 155.424 127.603 155.424 133.199C155.424 140.831 154.152 147.7 151.735 153.932C149.191 160.292 145.63 165.762 140.923 170.341C136.09 175.047 129.985 178.736 122.48 181.28C114.975 183.951 106.453 185.223 96.9135 185.223H11.8192V0.152152H84.4483C94.8784 0.152152 103.909 1.29692 111.795 3.33206C119.682 5.49439 126.041 8.5471 131.002 12.4902C135.963 16.4333 139.651 21.1395 142.068 26.609C144.485 32.2056 145.757 38.4382 145.757 45.434C145.757 49.5043 145.248 53.4474 144.358 57.0089C143.467 60.5704 142.068 64.259 140.033 67.9477C137.998 71.6364 134.945 75.0707 131.129 78.1234C127.313 81.1761 122.734 83.8473 117.392 85.8824V86.3912ZM59.7722 43.2717V73.1628H75.9261C82.0315 73.1628 86.865 71.8908 90.5537 69.2197C94.1152 66.6758 96.0231 62.9871 96.0231 58.408C96.0231 55.4825 95.2599 52.9386 93.8608 50.6491C92.3344 48.4867 90.0449 46.706 86.9922 45.3068C83.8123 44.0348 79.9964 43.2717 75.5445 43.2717H59.7722ZM81.6499 142.739C88.5185 142.739 93.988 141.34 98.0583 138.414C102.129 135.616 104.164 131.419 104.164 125.949C104.164 120.989 102.256 117.045 98.4399 113.993C94.624 110.94 89.0273 109.414 81.3956 109.414H59.7722V142.739H81.6499ZM174.885 185.223V0.152152H297.884V44.2892H222.838V72.1452H281.602V115.138H222.838V141.213H303.353V185.223H174.885ZM362.626 185.223V44.2892H315.564V0.152152H458.66V44.2892H411.851V185.223H362.626ZM515.007 185.223V44.2892H467.945V0.152152H611.041V44.2892H564.232V185.223H515.007ZM629.23 185.223V0.152152H752.228V44.2892H677.183V72.1452H735.947V115.138H677.183V141.213H757.698V185.223H629.23ZM931.066 185.223H873.446L838.595 128.748H827.147V185.223H779.067V0.152152H853.222C864.543 0.152152 874.591 1.8057 883.241 5.11281C891.89 8.41991 899.013 12.999 904.355 18.85C909.697 24.8282 913.768 31.6968 916.566 39.583C919.237 47.4691 920.636 56.2457 920.636 65.9126C920.636 72.654 919.873 78.8866 918.474 84.6104C917.075 90.3343 915.04 95.4221 912.368 100.001C909.57 104.58 906.39 108.651 902.574 112.085C898.758 115.646 894.307 118.572 889.346 120.861L889.219 121.243L931.066 185.223ZM827.147 43.6533V85.8824H842.156C850.297 85.8824 856.784 84.1017 861.744 80.413C866.705 76.8515 869.249 71.6364 869.249 64.7678C869.249 58.7896 866.832 53.829 862.126 49.7587C857.42 45.6884 850.806 43.6533 842.156 43.6533H827.147ZM965.282 187.894C958.159 187.894 952.181 185.477 947.22 180.644C942.26 175.81 939.843 169.832 939.843 162.836C939.843 156.095 942.26 150.244 947.347 145.41C952.308 140.577 958.286 138.033 965.282 138.033C972.151 138.033 978.129 140.577 983.09 145.41C988.05 150.244 990.594 156.095 990.594 162.836C990.594 169.832 988.05 175.81 983.09 180.644C978.129 185.477 972.151 187.894 965.282 187.894ZM68.6759 516.894C56.2107 516.894 44.1271 514.477 32.425 509.516C20.5958 504.556 9.91128 497.178 0.244367 487.257L28.2275 452.787C35.0961 459.783 42.2191 464.998 49.7237 468.305C57.2283 471.612 64.0969 473.265 70.4567 473.265C75.7989 473.265 79.742 472.121 82.4131 469.831C84.9571 467.542 86.3562 464.616 86.3562 461.309C86.3562 457.493 84.8299 454.44 81.7771 452.024C78.7244 449.607 72.4918 446.809 62.9521 443.502C58.373 441.975 54.43 440.576 50.8685 439.177C47.307 437.778 43.6183 435.997 39.548 433.962C35.4777 431.927 32.0434 429.764 28.9907 427.475C25.938 425.312 22.8853 422.641 19.9598 419.461C17.0343 416.409 14.6175 413.102 12.8368 409.54C11.056 405.979 9.52969 401.908 8.38493 397.329C7.24016 392.75 6.73137 387.917 6.73137 382.575C6.73137 372.272 9.2753 362.859 14.6175 354.464C19.9598 346.069 27.3372 339.328 36.7497 334.367C46.1622 329.534 56.7195 326.863 68.4215 326.608C80.6324 326.354 92.3344 328.516 103.528 332.841C114.721 337.166 124.769 343.398 133.928 351.284L106.453 386.645C98.567 380.667 91.9528 376.342 86.4834 373.798C81.014 371.254 75.9261 369.982 71.2199 369.982C66.8952 369.982 63.7153 371 61.5529 372.908C59.2634 374.943 58.2458 377.614 58.2458 380.921C58.2458 384.355 59.7722 387.408 62.9521 390.206C66.0048 393.005 72.1102 396.057 81.014 399.364C96.5319 405.47 106.962 409.795 112.05 412.466C123.243 418.571 130.748 425.948 134.564 434.852C137.108 440.703 138.379 447.699 138.379 455.585C138.379 462.072 137.616 468.05 136.09 473.52C134.564 479.116 132.528 483.95 129.985 488.02C127.441 492.091 124.261 495.779 120.699 499.086C117.01 502.393 113.195 505.192 109.124 507.354C105.054 509.644 100.602 511.424 96.0231 512.823C91.3169 514.35 86.7378 515.367 82.2859 516.003C77.7069 516.639 73.255 516.894 68.6759 516.894ZM157.077 514.223V329.152H280.076V373.289H205.03V401.145H263.795V444.138H205.03V470.213H285.545V514.223H157.077ZM394.044 516.894C385.395 516.894 377 516.003 368.986 514.095C360.846 512.315 353.214 509.644 346.091 506.082C338.968 502.521 332.354 498.069 326.375 492.599C320.397 487.257 315.309 481.024 310.985 474.156C306.66 467.287 303.353 459.528 301.063 450.625C298.647 441.721 297.502 432.308 297.502 422.133C297.502 413.356 298.392 404.834 300.427 396.693C302.335 388.553 305.134 381.048 308.822 373.925C312.384 366.802 317.09 360.442 322.687 354.591C328.283 348.74 334.516 343.78 341.512 339.582C348.508 335.512 356.521 332.205 365.425 329.915C374.328 327.626 383.868 326.481 394.044 326.481C407.527 326.481 420.882 329.534 434.365 335.385C447.848 341.363 459.55 350.267 469.471 362.223L433.22 393.259C431.058 390.97 428.641 388.68 426.097 386.645C423.553 384.61 420.628 382.575 417.321 380.539C414.014 378.631 410.325 377.105 406.255 375.96C402.184 374.816 398.114 374.18 394.044 374.18C389.465 374.18 385.013 374.816 380.688 376.088C376.364 377.36 372.293 379.395 368.477 382.066C364.662 384.737 361.482 387.917 358.683 391.733C355.885 395.549 353.595 400 352.069 405.215C350.416 410.431 349.652 416.027 349.652 422.133C349.652 428.492 350.67 434.471 352.705 440.067C354.74 445.791 357.539 450.752 361.354 455.076C365.043 459.401 369.749 462.835 375.346 465.379C380.943 467.923 387.175 469.195 394.044 469.195C401.167 469.195 408.417 467.542 415.54 463.98C422.663 460.546 428.641 455.967 433.22 450.37L469.471 481.533C460.822 492.091 450.01 500.613 437.036 507.1C423.935 513.714 409.562 516.894 394.044 516.894ZM563.215 516.894C551.513 516.894 540.828 515.24 531.416 511.679C521.876 508.117 513.736 503.029 506.867 496.288C499.998 489.674 494.783 481.152 491.095 470.976C487.279 460.8 485.498 449.353 485.498 436.506V329.152H535.613V433.707C535.613 440.576 536.504 446.681 538.412 452.151C540.32 457.62 543.372 462.072 547.697 465.634C552.022 469.195 557.109 470.849 563.215 470.849C568.557 470.849 573.391 469.45 577.715 466.651C582.04 463.853 585.347 459.528 587.891 453.804C590.435 448.208 591.707 441.466 591.707 433.707V329.152H641.568V436.506C641.568 452.787 638.515 466.906 632.664 478.862C626.686 490.819 617.782 500.231 605.953 506.845C593.996 513.587 579.75 516.894 563.215 516.894ZM819.388 514.223H761.768L726.916 457.748H715.469V514.223H667.389V329.152H741.544C752.864 329.152 762.913 330.806 771.562 334.113C780.212 337.42 787.335 341.999 792.677 347.85C798.019 353.828 802.089 360.697 804.888 368.583C807.559 376.469 808.958 385.246 808.958 394.913C808.958 401.654 808.195 407.887 806.796 413.61C805.396 419.334 803.361 424.422 800.69 429.001C797.892 433.58 794.712 437.651 790.896 441.085C787.08 444.646 782.628 447.572 777.668 449.861L777.54 450.243L819.388 514.223ZM715.469 372.653V414.882H730.478C738.618 414.882 745.105 413.102 750.066 409.413C755.027 405.851 757.571 400.636 757.571 393.768C757.571 387.79 755.154 382.829 750.448 378.759C745.741 374.688 739.127 372.653 730.478 372.653H715.469ZM835.415 514.223V329.152H885.657V514.223H835.415ZM952.308 514.223V373.289H905.246V329.152H1048.34V373.289H1001.53V514.223H952.308ZM1172.36 329.152H1229.72L1169.69 434.343V514.223H1119.19V434.343L1059.53 329.152H1116.39L1144.63 385.754H1144.88L1172.36 329.152ZM1243.08 516.894C1235.96 516.894 1229.98 514.477 1225.02 509.644C1220.06 504.81 1217.64 498.832 1217.64 491.836C1217.64 485.095 1220.06 479.244 1225.14 474.41C1230.1 469.577 1236.08 467.033 1243.08 467.033C1249.95 467.033 1255.93 469.577 1260.89 474.41C1265.85 479.244 1268.39 485.095 1268.39 491.836C1268.39 498.832 1265.85 504.81 1260.89 509.644C1255.93 514.477 1249.95 516.894 1243.08 516.894ZM49.7237 843.223V702.289H2.6611V658.152H145.757V702.289H98.9486V843.223H49.7237ZM245.606 845.894C231.487 845.894 218.513 843.604 206.557 838.898C194.6 834.319 184.424 827.832 176.03 819.437C167.635 811.169 161.02 801.121 156.314 789.291C151.608 777.589 149.318 764.743 149.318 750.751C149.318 736.887 151.608 724.04 156.314 712.211C161.02 700.381 167.635 690.333 176.03 681.938C184.424 673.67 194.6 667.183 206.557 662.477C218.513 657.898 231.487 655.481 245.606 655.481C259.47 655.481 272.317 657.898 284.274 662.477C296.103 667.056 306.278 673.543 314.673 681.811C323.068 690.078 329.555 700.127 334.389 711.956C339.095 723.913 341.512 736.759 341.512 750.751C341.512 764.743 339.095 777.717 334.389 789.546C329.555 801.375 323.068 811.424 314.673 819.691C306.278 827.959 296.103 834.446 284.274 839.025C272.317 843.604 259.47 845.894 245.606 845.894ZM245.479 799.722C254.001 799.722 261.633 797.559 268.501 793.235C275.37 788.91 280.585 782.932 284.274 775.554C287.962 768.177 289.87 759.909 289.87 750.751C289.87 741.72 287.962 733.452 284.274 726.075C280.585 718.698 275.37 712.719 268.501 708.395C261.633 704.07 254.001 701.78 245.479 701.78C236.829 701.78 229.198 703.943 222.456 708.267C215.588 712.592 210.373 718.57 206.557 725.948C202.741 733.452 200.96 741.72 200.96 750.751C200.96 759.909 202.741 768.177 206.557 775.554C210.373 782.932 215.588 788.91 222.456 793.235C229.325 797.559 236.957 799.722 245.479 799.722ZM453.826 845.512C443.014 845.512 432.839 844.24 423.172 841.569C413.505 839.025 404.728 835.082 396.715 829.74C388.574 824.525 381.706 818.165 375.855 810.788C370.004 803.41 365.425 794.507 362.118 784.331C358.811 774.155 357.284 763.089 357.284 751.133C357.284 740.448 358.556 730.4 361.227 720.733C363.898 711.066 367.841 702.289 373.184 694.403C378.526 686.517 384.886 679.648 392.39 673.797C399.895 668.073 408.671 663.622 418.847 660.314C429.023 657.135 439.962 655.481 451.791 655.481C460.949 655.481 470.107 656.753 479.393 659.297C488.551 661.841 497.454 665.784 506.104 670.999C514.626 676.214 522.003 682.447 528.109 689.697L493.003 719.334C480.919 707.886 467.182 702.035 451.664 702.035C447.085 702.035 442.76 702.798 438.563 704.07C434.365 705.469 430.422 707.504 426.861 710.303C423.299 713.101 420.119 716.408 417.448 720.224C414.777 724.04 412.742 728.619 411.215 733.961C409.689 739.303 408.926 745.027 408.926 751.133C408.926 757.747 409.943 764.107 411.979 769.958C414.014 775.809 416.812 781.024 420.501 785.603C424.189 790.182 428.896 793.743 434.747 796.287C440.471 798.958 446.83 800.23 453.826 800.23C463.493 800.23 472.651 798.195 481.555 794.125V777.081H450.01V737.141H527.982V823.253C519.332 829.74 508.393 835.082 494.91 839.28C481.428 843.477 467.69 845.512 453.826 845.512ZM551.894 843.223V658.152H674.893V702.289H599.847V730.145H658.612V773.138H599.847V799.213H680.363V843.223H551.894ZM739.636 843.223V702.289H692.573V658.152H835.669V702.289H788.861V843.223H739.636ZM854.113 843.223V658.152H904.228V731.926H960.067V658.152H1010.18V843.223H960.067V775.809H904.228V843.223H854.113ZM1037.53 843.223V658.152H1160.53V702.289H1085.48V730.145H1144.25V773.138H1085.48V799.213H1166V843.223H1037.53ZM1339.37 843.223H1281.75L1246.89 786.748H1235.45V843.223H1187.37V658.152H1261.52C1272.84 658.152 1282.89 659.806 1291.54 663.113C1300.19 666.42 1307.31 670.999 1312.65 676.85C1318 682.828 1322.07 689.697 1324.87 697.583C1327.54 705.469 1328.94 714.246 1328.94 723.913C1328.94 730.654 1328.17 736.887 1326.77 742.61C1325.37 748.334 1323.34 753.422 1320.67 758.001C1317.87 762.58 1314.69 766.651 1310.87 770.085C1307.06 773.646 1302.61 776.572 1297.65 778.861L1297.52 779.243L1339.37 843.223ZM1235.45 701.653V743.882H1250.46C1258.6 743.882 1265.08 742.102 1270.04 738.413C1275 734.851 1277.55 729.636 1277.55 722.768C1277.55 716.79 1275.13 711.829 1270.43 707.759C1265.72 703.688 1259.11 701.653 1250.46 701.653H1235.45ZM1373.58 845.894C1366.46 845.894 1360.48 843.477 1355.52 838.644C1350.56 833.81 1348.14 827.832 1348.14 820.836C1348.14 814.095 1350.56 808.244 1355.65 803.41C1360.61 798.577 1366.59 796.033 1373.58 796.033C1380.45 796.033 1386.43 798.577 1391.39 803.41C1396.35 808.244 1398.89 814.095 1398.89 820.836C1398.89 827.832 1396.35 833.81 1391.39 838.644C1386.43 843.477 1380.45 845.894 1373.58 845.894Z" fill="white"/>
</svg>
