<svg width="83" height="96" viewBox="0 0 83 96" fill="none" xmlns="http://www.w3.org/2000/svg">
<path d="M67.1156 6.48289C66.5906 6.21821 54.1107 0 42.1826 0C30.2545 0 17.7739 6.21821 17.2489 6.48289C16.544 6.83822 16.0988 7.56047 16.0988 8.35017V40.9677C16.0988 44.4687 17.5099 48.0445 20.2923 51.5963C22.4025 54.2895 25.3191 56.9914 28.9594 59.6266C35.0623 64.0443 41.0746 66.7549 41.3276 66.868C41.5996 66.9899 41.8904 67.0508 42.1819 67.0508C42.4734 67.0508 42.7642 66.9899 43.0361 66.868C43.2892 66.7549 49.3015 64.0436 55.4044 59.6266C59.0447 56.9907 61.9612 54.2895 64.0714 51.5963C66.8539 48.0452 68.265 44.4687 68.265 40.9677V8.35017C68.265 7.56047 67.8205 6.83822 67.1156 6.48289ZM64.0845 40.9677C64.0845 42.3556 63.7466 43.7233 63.1795 45.0546L59.7604 36.2737L39.6844 45.6478L38.311 60.6187C36.2951 59.4881 33.8506 58.0037 31.4126 56.2387C26.3343 52.5629 20.2807 46.9292 20.2807 40.9669V9.67575C23.5461 8.19353 33.2146 4.18197 42.1826 4.18197C51.1506 4.18197 60.8155 8.19571 64.0845 9.6772V40.9677Z" fill="black"/>
<path d="M36.5261 25.0686H23.6125L24.5814 33.785L40.2389 39.5956L39.8676 43.6398L59.1256 34.6472L57.1561 29.5885L55.8551 22.0012L54.2823 9.57202L49.9553 22.0012L46.6957 15.7061V22.0012H37.9793L36.5261 25.0686Z" fill="black"/>
<path d="M38.1031 45.5411C37.6223 45.5411 37.2322 46.3206 37.2322 47.2829C37.2322 48.2452 37.6223 49.0247 38.1031 49.0247C38.5839 49.0247 38.974 48.2452 38.974 47.2829C38.974 46.3206 38.5839 45.5411 38.1031 45.5411Z" fill="black"/>
<path d="M21.8922 83.4648H28.3961V86.3234H21.8922V83.4648Z" fill="black"/>
<path d="M18.4949 74.2866V78.3113C16.5311 76.6681 14.4993 75.8465 12.3992 75.8465C10.0852 75.8465 8.13603 76.6775 6.55156 78.3403C4.95694 79.9929 4.15999 82.0154 4.15999 84.4069C4.15999 86.7695 4.95694 88.7622 6.55156 90.3858C8.14618 92.0094 10.1005 92.8209 12.4137 92.8209C13.6095 92.8209 14.6254 92.6266 15.4615 92.2379C15.9285 92.0435 16.4122 91.781 16.9126 91.4504C17.4129 91.1197 17.9409 90.7208 18.4949 90.2546V94.3524C16.5507 95.451 14.5087 96 12.3702 96C9.15197 96 6.4058 94.8774 4.13099 92.6316C1.8656 90.3662 0.73291 87.6346 0.73291 84.4359C0.73291 81.5679 1.68069 79.011 3.57697 76.7652C5.91052 74.014 8.92862 72.6384 12.6334 72.6384C14.6559 72.6384 16.6095 73.1873 18.4956 74.2859L18.4949 74.2866Z" fill="black"/>
<path d="M35.1928 86.4488V95.5923H31.7947V73.0762H35.6445C37.5307 73.0762 38.9549 73.2074 39.9171 73.4699C40.8896 73.7324 41.7445 74.2284 42.4835 74.9572C43.7764 76.2212 44.4233 77.8158 44.4233 79.7404C44.4233 81.8012 43.7329 83.435 42.3522 84.6402C40.9715 85.8454 39.11 86.4488 36.7671 86.4488H35.192H35.1928ZM35.1928 83.2987H36.4618C39.5829 83.2987 41.1427 82.0978 41.1427 79.6968C41.1427 77.3734 39.5335 76.2117 36.3153 76.2117H35.1928V83.2987Z" fill="black"/>
<path d="M47.2965 81.3888H50.5778V82.6578C51.1804 82.0262 51.7156 81.5933 52.1819 81.3598C52.6583 81.1169 53.2225 80.9951 53.8737 80.9951C54.7388 80.9951 55.643 81.2771 56.5865 81.8406L55.0847 84.8449C54.4625 84.3975 53.8548 84.1741 53.2616 84.1741C51.4727 84.1741 50.5786 85.5258 50.5786 88.2285V95.5932H47.2972V81.3895L47.2965 81.3888Z" fill="black"/>
<path d="M57.5331 88.3887C57.5331 86.3373 58.2669 84.5926 59.7354 83.1531C61.2038 81.7137 62.9921 80.9951 65.1023 80.9951C67.2125 80.9951 69.0203 81.7195 70.4981 83.1676C71.9564 84.6165 72.6859 86.3953 72.6859 88.5048C72.6859 90.6338 71.9521 92.4177 70.4836 93.8564C69.0058 95.2857 67.1929 96 65.0442 96C62.9152 96 61.1313 95.2705 59.6926 93.8122C58.2539 92.3735 57.5345 90.5649 57.5345 88.3873L57.5331 88.3887ZM60.8869 88.4468C60.8869 89.8659 61.2662 90.9892 62.0247 91.8151C62.8028 92.6512 63.8282 93.0689 65.1015 93.0689C66.3851 93.0689 67.4104 92.6556 68.1784 91.8296C68.9463 91.0037 69.3306 89.9 69.3306 88.5193C69.3306 87.1386 68.9463 86.0356 68.1784 85.2089C67.4003 84.3728 66.3749 83.9551 65.1015 83.9551C63.8477 83.9551 62.8311 84.3728 62.0537 85.2089C61.2763 86.045 60.8869 87.1248 60.8869 88.4468Z" fill="black"/>
<path d="M79.715 84.4511V95.5924H76.4337V84.4511H75.0334V81.3888H76.4337V76.1829H79.715V81.3888H82.2669V84.4511H79.715Z" fill="black"/>
</svg>
