<svg xmlns="http://www.w3.org/2000/svg" xmlns:xlink="http://www.w3.org/1999/xlink" width="1920" height="1071" viewBox="0 0 1920 1071">
  <defs>
    <clipPath id="clip-path">
      <rect id="Rectangle_3" data-name="Rectangle 3" width="1920" height="1071"/>
    </clipPath>
  </defs>
  <g id="Creative" clip-path="url(#clip-path)">
    <g id="crative" transform="translate(-426 16.5)">
      <path id="Path" d="M0,286.982c66.54-95.73,174-159.94,287.55-171.8,17.61-1.84,36.84-2.06,51.25,8.56,19.23,14.17,22.67,41.53,31.7,64.07,22.06,55.07,83.21,84.82,140.93,85.46s113.03-22.23,165.93-46.09c122.41-55.21,241.93-117.8,367.9-163.65,125.99-45.84,260.39-74.72,393.13-59.39,42.34,4.88,92.06,21.56,102.27,64.25,9.06,37.88-16.56,85.98,10.81,112.88,10.79,10.61,26.6,13.36,41.45,14.69,100.32,9.02,199.56-24.02,300.11-29.68,152.16-8.58,306.8,48.82,418.82,155.47" transform="translate(198.58 0.309)" fill="none" stroke="#015AED" stroke-miterlimit="10" stroke-width="1.5"/>
      <path id="Path-2" data-name="Path" d="M0,284.217c70.73-96.43,181.72-161.15,298.85-173.93,17.41-1.86,36.39-2.14,50.74,8,19.17,13.53,23.19,39.76,32.56,61.43,22.95,52.95,83.32,81.81,139.91,83.86,43.51,1.58,84.91-9.24,125.6-24.16,12.56-4.59,25.03-9.57,37.42-14.66,60.39-24.89,120.95-52.72,181.62-79.99,61.41-27.61,123.15-54.5,186.38-77.59,96.2-35.12,196.94-61.31,297.92-66.31a666.434,666.434,0,0,1,92.76,1.7c42,3.77,91.1,18.86,102.28,58.96,9.95,35.56-13.38,80.96,14.19,106.05,10.86,9.9,26.53,12.27,41.29,13.29,41.34,2.85,82.52-1.16,123.74-7.27,58.22-8.63,116.5-21.41,175.25-24.97,151.84-9.21,306.3,46.37,419.38,150.66" transform="translate(190.67 33.463)" fill="none" stroke="#015AED" stroke-miterlimit="10" stroke-width="1.5"/>
      <path id="Path-3" data-name="Path" d="M0,281.8c74.94-97.12,189.42-162.68,310.17-176.06,17.2-1.91,35.92-2.22,50.23,7.44,19.1,12.89,23.7,38,33.4,58.8,23.84,50.81,83.46,78.8,138.9,82.25,42.91,2.68,82.99-5.73,123.07-18.64,12.39-3.96,24.74-8.36,37.04-12.92,59.94-22.33,120.92-48.72,181.7-75.14,61.55-26.74,123.3-53.23,186.4-76.36,95.95-35.16,196.06-62.37,296.22-69.38a683.96,683.96,0,0,1,92-.45c41.68,2.66,90.14,16.16,102.3,53.67,10.85,33.24-10.19,75.94,17.58,99.23,10.92,9.19,26.46,11.18,41.13,11.88,41.08,1.96,82.05-2.58,123.11-9.02,58-9.11,116.12-21.98,174.74-25.78,151.53-9.83,305.82,43.91,419.94,145.85" transform="translate(182.75 66.275)" fill="none" stroke="#015AED" stroke-miterlimit="10" stroke-width="1.5"/>
      <path id="Path-4" data-name="Path" d="M0,279.759c79.13-97.83,197.12-164.04,321.48-178.21,16.99-1.93,35.46-2.29,49.71,6.9,19.04,12.25,24.22,36.23,34.26,56.15,24.73,48.69,83.59,75.81,137.88,80.65,42.31,3.78,81.08-2.22,120.55-13.12,12.2-3.33,24.43-7.15,36.66-11.17,59.47-19.77,120.89-44.73,181.78-70.3,61.67-25.88,123.44-51.96,186.4-75.12,95.71-35.19,195.18-63.44,294.53-72.47a708.016,708.016,0,0,1,91.24-2.59c41.35,1.55,89.19,13.47,102.32,48.38,11.74,30.91-7.01,70.91,20.96,92.4,10.99,8.49,26.41,10.09,40.99,10.47,40.82,1.09,81.57-3.98,122.46-10.76,57.77-9.59,115.76-22.54,174.25-26.59,151.21-10.46,305.34,41.45,420.48,141.04" transform="translate(174.84 98.711)" fill="none" stroke="#015AED" stroke-miterlimit="10" stroke-width="1.5"/>
      <path id="Path-5" data-name="Path" d="M0,278.145c83.33-98.53,204.83-165.39,332.78-180.35,16.79-1.96,35.01-2.36,49.21,6.34,18.97,11.61,24.72,34.46,35.11,53.51,25.61,46.56,83.73,72.83,136.85,79.06,41.73,4.88,79.17,1.28,118.04-7.61,12.02-2.7,24.13-5.91,36.27-9.42,59.05-17.1,120.86-40.74,181.86-65.46,61.8-25.01,123.59-50.7,186.42-73.89,95.46-35.22,194.3-64.49,292.83-75.55a735.926,735.926,0,0,1,90.48-4.73c41.01.44,88.17,10.8,102.34,43.09,12.57,28.62-3.83,65.88,24.34,85.57,11.05,7.79,26.35,9.01,40.83,9.07,40.57.2,81.11-5.4,121.84-12.52,57.53-10.06,115.38-23.09,173.75-27.38,150.88-11.1,304.85,38.99,421.04,136.23" transform="translate(166.93 130.725)" fill="none" stroke="#015AED" stroke-miterlimit="10" stroke-width="1.5"/>
      <path id="Path-6" data-name="Path" d="M0,276.945c87.53-99.23,212.54-166.72,344.1-182.48,16.58-1.99,34.55-2.45,48.69,5.78,18.91,10.98,25.2,32.73,35.97,50.88,26.39,44.49,83.88,69.86,135.83,77.45,41.14,6,77.24,4.7,115.52-2.09,11.83-2.1,23.83-4.69,35.89-7.67,58.59-14.53,120.82-36.75,181.93-60.61,61.93-24.16,123.74-49.44,186.44-72.67,95.21-35.25,193.41-65.55,291.12-78.62a766.827,766.827,0,0,1,89.73-6.88c40.68-.67,87.2,8.12,102.36,37.79,13.45,26.32-.6,60.81,27.72,78.75,11.14,7.06,26.28,7.92,40.68,7.66,40.31-.68,80.64-6.8,121.19-14.26,57.33-10.54,115.02-23.66,173.28-28.19,150.55-11.72,304.34,36.53,421.58,131.42" transform="translate(159.01 162.314)" fill="none" stroke="#015AED" stroke-miterlimit="10" stroke-width="1.5"/>
      <path id="Path-7" data-name="Path" d="M0,275.984c91.73-99.93,220.25-168.06,355.4-184.62,16.38-2.01,34.1-2.52,48.18,5.22,18.85,10.34,25.71,30.97,36.82,48.24,27.27,42.38,84.04,66.91,134.82,75.85,40.57,7.14,75.33,8.2,112.99,3.43,11.66-1.47,23.53-3.47,35.51-5.93,58.14-11.93,120.8-32.75,182.01-55.76,62.06-23.3,123.89-48.18,186.45-71.43,94.97-35.29,192.53-66.62,289.44-81.71a804.106,804.106,0,0,1,88.96-9.02c40.36-1.78,86.23,5.44,102.38,32.5,14.33,24.02,2.58,55.77,31.11,71.92,11.2,6.35,26.21,6.83,40.53,6.26,40.04-1.57,80.15-8.22,120.55-16.01,57.09-11.02,114.65-24.22,172.77-29,150.24-12.35,303.86,34.08,422.13,126.61" transform="translate(151.1 193.676)" fill="none" stroke="#015AED" stroke-miterlimit="10" stroke-width="1.5"/>
      <path id="Path-8" data-name="Path" d="M0,275.224c95.93-100.63,227.97-169.37,366.72-186.76,16.17-2.02,33.64-2.59,47.67,4.68,18.78,9.69,26.21,29.2,37.67,45.6,28.14,40.26,84.2,63.97,133.8,74.24,39.99,8.28,73.41,11.7,110.47,8.96,11.48-.86,23.22-2.26,35.12-4.19,57.68-9.36,120.77-28.76,182.1-50.92,62.18-22.43,124.03-46.92,186.46-70.2,94.72-35.32,191.65-67.68,287.73-84.78A846.513,846.513,0,0,1,1475.95.694c40.03-2.9,85.28,2.75,102.41,27.2,15.2,21.71,5.76,50.74,34.48,65.1,11.27,5.63,26.15,5.74,40.38,4.84,39.78-2.45,79.69-9.62,119.91-17.75,56.87-11.5,114.28-24.78,172.28-29.8,149.92-12.98,303.37,31.61,422.69,121.79" transform="translate(143.18 224.826)" fill="none" stroke="#015AED" stroke-miterlimit="10" stroke-width="1.5"/>
      <path id="Path-9" data-name="Path" d="M0,274.723c100.13-101.34,235.68-170.68,378.02-188.89,15.97-2.05,33.19-2.68,47.17,4.11,18.72,9.06,26.71,27.44,38.52,42.96,29.01,38.15,84.35,61.05,132.77,72.64,39.43,9.43,71.51,15.2,107.96,14.48,11.3-.23,22.91-1.04,34.74-2.44,57.21-6.79,120.73-24.77,182.17-46.08,62.32-21.57,124.18-45.65,186.47-68.96,94.48-35.36,190.77-68.75,286.04-87.87,29.18-5.86,58.35-10.4,87.45-13.3,39.7-4.02,84.31.07,102.43,21.91,16.09,19.41,8.94,45.7,37.86,58.27,11.34,4.93,26.08,4.65,40.22,3.44,39.54-3.33,79.22-11.03,119.29-19.51,56.64-11.98,113.91-25.34,171.78-30.6,149.59-13.61,302.88,29.15,423.24,116.98" transform="translate(135.27 255.727)" fill="none" stroke="#015AED" stroke-miterlimit="10" stroke-width="1.5"/>
      <path id="Path-10" data-name="Path" d="M0,274.471c104.33-102.03,243.4-171.96,389.34-191.03,15.77-2.06,32.73-2.75,46.65,3.56,18.65,8.42,27.23,25.69,39.37,40.32,29.9,36.04,84.52,58.15,131.76,71.04,38.86,10.6,69.61,18.7,105.43,20a313.01,313.01,0,0,0,34.35-.69c56.75-4.22,120.72-20.77,182.26-41.23,62.45-20.72,124.33-44.39,186.49-67.74,94.23-35.39,189.88-69.81,284.35-90.95,28.92-6.47,57.84-11.73,86.69-15.44,39.36-5.13,83.34-2.6,102.44,16.62,16.98,17.11,12.13,40.67,41.24,51.44,11.4,4.22,26.02,3.57,40.07,2.04,39.28-4.22,78.75-12.45,118.65-21.26,56.41-12.46,113.53-25.91,171.29-31.41,149.26-14.24,302.39,26.69,423.8,112.17" transform="translate(127.35 286.369)" fill="none" stroke="#015AED" stroke-miterlimit="10" stroke-width="1.5"/>
      <path id="Path-11" data-name="Path" d="M0,274.526c108.53-102.74,251.11-173.24,400.64-193.17,15.57-2.08,32.28-2.83,46.14,3,18.6,7.79,27.75,23.93,40.23,37.69,30.78,33.92,84.68,55.26,130.74,69.43,38.29,11.78,67.7,22.21,102.91,25.51a275,275,0,0,0,33.97,1.06c56.28-1.65,120.68-16.78,182.33-36.38,62.58-19.85,124.48-43.13,186.5-66.51,94-35.42,189.01-70.87,282.65-94.02,28.68-7.09,57.33-13.07,85.95-17.59,39.03-6.24,82.39-5.28,102.45,11.33,17.87,14.8,15.31,35.64,44.63,44.61,11.46,3.51,25.95,2.48,39.92.63,39.02-5.1,78.27-13.85,118.01-23,56.18-12.94,113.16-26.47,170.78-32.22,148.95-14.86,301.91,24.23,424.35,107.36" transform="translate(119.439 316.715)" fill="none" stroke="#015AED" stroke-miterlimit="10" stroke-width="1.5"/>
      <path id="Path-12" data-name="Path" d="M0,287.954c112.73-103.43,258.83-174.51,411.96-195.3,15.36-2.09,31.82-2.91,45.63,2.45,18.53,7.14,28.26,22.16,41.08,35.04,31.66,31.81,84.84,52.4,129.72,67.83,37.72,12.97,65.8,25.72,100.39,31.03a247.362,247.362,0,0,0,33.58,2.81c55.81.91,120.65-12.79,182.42-31.54,62.7-18.99,124.62-41.86,186.51-65.27,93.74-35.46,188.12-71.94,280.95-97.1,28.43-7.71,56.83-14.4,85.19-19.74,38.7-7.35,81.44-7.95,102.47,6.04,18.77,12.5,18.48,30.6,48.01,37.78,11.53,2.81,25.88,1.39,39.77-.77,38.76-5.99,77.8-15.27,117.36-24.75,55.97-13.42,112.8-27.03,170.3-33.02,148.63-15.5,301.41,21.77,424.9,102.55" transform="translate(111.52 333.676)" fill="none" stroke="#015AED" stroke-miterlimit="10" stroke-width="1.5"/>
      <path id="Path-13" data-name="Path" d="M0,303.224c116.93-104.14,266.55-175.76,423.27-197.44,15.15-2.1,31.36-2.99,45.11,1.89,18.47,6.51,28.77,20.4,41.93,32.41,32.56,29.69,85.01,49.55,128.71,66.23,37.15,14.18,63.89,29.21,97.87,36.55a224.517,224.517,0,0,0,33.2,4.55c55.34,3.48,120.62-8.8,182.49-26.69,62.84-18.14,124.77-40.61,186.53-64.05,93.49-35.49,187.23-73,279.24-100.18,28.2-8.33,56.33-15.73,84.44-21.88,38.37-8.46,80.51-10.64,102.49.75,19.68,10.2,21.66,25.58,51.39,30.96,11.6,2.09,25.83.29,39.61-2.18,38.52-6.87,77.34-16.68,116.74-26.5,55.74-13.9,112.42-27.59,169.8-33.83,148.31-16.12,300.93,19.31,425.46,97.74" transform="translate(103.61 348.807)" fill="none" stroke="#015AED" stroke-miterlimit="10" stroke-width="1.5"/>
      <path id="Path-14" data-name="Path" d="M0,318.516c121.13-104.83,274.27-177,434.59-199.57,14.94-2.11,30.9-3.07,44.6,1.33,18.4,5.87,29.29,18.64,42.78,29.77,33.45,27.58,85.16,46.72,127.68,64.62,36.58,15.4,62,32.75,95.36,42.07a203.761,203.761,0,0,0,32.81,6.3c54.88,6.04,120.59-4.79,182.57-21.84,62.96-17.27,124.92-39.34,186.54-62.82,93.25-35.51,186.36-74.06,277.56-103.25,27.94-8.95,55.82-17.07,83.67-24.03,38.04-9.57,79.57-13.32,102.51-4.54,20.59,7.88,24.83,20.55,54.77,24.13,11.66,1.39,25.77-.79,39.47-3.59,38.25-7.75,76.86-18.09,116.09-28.24,55.51-14.38,112.05-28.16,169.31-34.64,147.99-16.75,300.44,16.85,426,92.93" transform="translate(95.689 363.904)" fill="none" stroke="#015AED" stroke-miterlimit="10" stroke-width="1.5"/>
      <path id="Path-15" data-name="Path" d="M0,333.844c125.33-105.54,281.99-178.22,445.89-201.72,14.75-2.11,30.45-3.14,44.09.78,18.34,5.23,29.81,16.88,43.64,27.13,34.34,25.46,85.3,43.91,126.66,63.03,36,16.63,60.09,36.25,92.84,47.59a188.588,188.588,0,0,0,32.42,8.04c54.41,8.58,120.56-.81,182.65-17,63.1-16.4,125.07-38.07,186.56-61.58,93-35.56,185.47-75.13,275.86-106.34,27.69-9.56,55.31-18.4,82.91-26.16,37.72-10.69,78.64-16.03,102.53-9.84,21.49,5.57,28.02,15.53,58.15,17.3,11.72.68,25.7-1.88,39.32-4.99,38-8.64,76.39-19.5,115.46-29.99,55.28-14.86,111.68-28.72,168.8-35.44,147.67-17.39,299.96,14.39,426.56,88.11" transform="translate(87.78 378.977)" fill="none" stroke="#015AED" stroke-miterlimit="10" stroke-width="1.5"/>
      <path id="Path-16" data-name="Path" d="M0,349.2C129.53,242.97,289.72,169.78,457.21,145.35c14.54-2.12,29.99-3.22,43.58.23,18.27,4.59,30.32,15.11,44.48,24.49,35.24,23.33,85.45,41.1,125.65,61.42,35.41,17.89,58.18,39.77,90.31,53.11a176.957,176.957,0,0,0,32.05,9.79c53.94,11.13,120.53,3.18,182.73-12.15,63.22-15.56,125.21-36.82,186.56-60.36,92.77-35.59,184.59-76.19,274.16-109.42,27.45-10.18,54.82-19.72,82.16-28.3,37.38-11.8,77.72-18.73,102.55-15.13,22.4,3.24,31.19,10.26,61.53,10.47,11.79.08,25.64-2.96,39.16-6.39,37.75-9.53,75.93-20.92,114.83-31.75,55.06-15.33,111.32-29.28,168.31-36.24,147.35-18.01,299.46,11.93,427.12,83.3" transform="translate(79.86 394.012)" fill="none" stroke="#015AED" stroke-miterlimit="10" stroke-width="1.5"/>
      <path id="Path-17" data-name="Path" d="M0,364.6C133.73,257.66,297.45,183.98,468.51,158.61c14.34-2.12,29.54-3.3,43.07-.33,18.21,3.95,30.84,13.34,45.34,21.85,36.14,21.21,85.58,38.33,124.63,59.81,34.81,19.16,56.27,43.3,87.79,58.64A166.61,166.61,0,0,0,801,310.121c53.47,13.67,120.5,7.18,182.81-7.32,63.35-14.68,125.36-35.54,186.58-59.12,92.52-35.61,183.72-77.24,272.47-112.49,27.18-10.8,54.29-21.06,81.39-30.45,37.05-12.92,76.78-21.44,102.57-20.42,23.31.91,34.37,5.49,64.91,3.64,11.86-.72,25.58-4.05,39.02-7.8,37.48-10.41,75.45-22.32,114.19-33.49,54.82-15.82,110.93-29.84,167.81-37.05,147.03-18.64,298.97,9.47,427.67,78.49" transform="translate(71.95 409.008)" fill="none" stroke="#015AED" stroke-miterlimit="10" stroke-width="1.5"/>
      <path id="Path-18" data-name="Path" d="M0,380.028c137.93-107.63,305.19-181.79,479.83-208.12,14.14-2.13,29.08-3.38,42.56-.89,18.14,3.32,31.36,11.58,46.19,19.22,37.04,19.07,85.69,35.55,123.61,58.21,34.2,20.43,54.36,46.82,85.27,64.15a159.1,159.1,0,0,0,31.27,13.28c53.01,16.21,120.48,11.17,182.89-2.46,63.48-13.83,125.5-34.29,186.59-57.89,92.27-35.65,182.84-78.32,270.77-115.58,26.94-11.41,53.8-22.38,80.64-32.59,36.72-14.03,75.84-24.14,102.59-25.71,24.22-1.42,37.54.48,68.3-3.19,11.91-1.42,25.5-5.14,38.86-9.2,37.23-11.29,74.98-23.73,113.55-35.24,54.6-16.3,110.57-30.4,167.32-37.85,146.71-19.28,298.49,7.01,428.22,73.68" transform="translate(64.03 423.973)" fill="none" stroke="#015AED" stroke-miterlimit="10" stroke-width="1.5"/>
      <path id="Path-19" data-name="Path" d="M0,395.5C142.13,287.17,312.92,212.55,491.13,185.25c13.94-2.14,28.63-3.46,42.05-1.45,18.08,2.68,31.88,9.81,47.04,16.58,37.95,16.94,85.8,32.81,122.59,56.61,33.59,21.73,52.45,50.35,82.75,69.67a152.459,152.459,0,0,0,30.9,15.03c52.54,18.74,120.44,15.16,182.96,2.39,63.62-12.97,125.65-33.03,186.61-56.67,92.02-35.69,181.95-79.38,269.07-118.66,26.69-12.03,53.29-23.72,79.89-34.73,36.39-15.14,74.9-26.86,102.59-31,25.13-3.76,40.74-4.53,71.69-10.01,11.98-2.13,25.44-6.23,38.71-10.61,36.97-12.18,74.51-25.15,112.91-36.99,54.38-16.78,110.2-30.97,166.82-38.66,146.4-19.9,298,4.55,428.78,68.87" transform="translate(56.12 438.891)" fill="none" stroke="#015AED" stroke-miterlimit="10" stroke-width="1.5"/>
      <path id="Path-20" data-name="Path" d="M0,411.027C146.32,302,320.65,226.937,502.44,198.627c13.73-2.14,28.17-3.52,41.53-1.99,18.02,2.03,32.41,8.04,47.9,13.93,38.85,14.8,85.88,30.06,121.57,55.01,32.95,23.03,50.53,53.87,80.23,75.19a149.075,149.075,0,0,0,30.51,16.78c52.09,21.28,120.41,19.16,183.05,7.22,63.74-12.1,125.79-31.75,186.61-55.43,91.78-35.71,181.08-80.44,267.39-121.72,26.43-12.66,52.78-25.06,79.12-36.89,36.06-16.25,73.95-29.58,102.61-36.3,26.03-6.09,43.92-9.53,75.07-16.83,12.04-2.82,25.38-7.32,38.56-12.02,36.72-13.06,74.04-26.55,112.27-38.74,54.15-17.25,109.84-31.52,166.33-39.46,146.07-20.53,297.51,2.1,429.33,64.06" transform="translate(48.21 453.764)" fill="none" stroke="#015AED" stroke-miterlimit="10" stroke-width="1.5"/>
      <path id="Path-21" data-name="Path" d="M0,426.59c150.53-109.73,328.39-185.2,513.75-214.53,13.54-2.14,27.71-3.61,41.03-2.55,17.95,1.4,32.92,6.26,48.75,11.29,39.75,12.66,85.95,27.34,120.55,53.41,32.3,24.35,48.61,57.4,77.71,80.71a145.092,145.092,0,0,0,30.12,18.53c51.64,23.81,120.39,23.14,183.13,12.07,63.87-11.25,125.94-30.5,186.63-54.2,91.54-35.75,180.19-81.5,265.68-124.81,26.19-13.28,52.28-26.39,78.37-39.03,35.73-17.36,73-32.29,102.63-41.59,26.92-8.43,47.09-14.55,78.45-23.66,12.11-3.52,25.31-8.4,38.41-13.42,36.46-13.94,73.56-27.97,111.64-40.49,53.93-17.73,109.45-32.09,165.83-40.27,145.75-21.15,297.02-.36,429.88,59.25" transform="translate(40.29 468.59)" fill="none" stroke="#015AED" stroke-miterlimit="10" stroke-width="1.5"/>
      <path id="Path-22" data-name="Path" d="M0,442.22c154.72-110.44,336.13-186.3,525.06-216.67,13.33-2.14,27.25-3.69,40.52-3.11,17.88.76,33.44,4.49,49.6,8.66,40.65,10.5,86.01,24.6,119.53,51.8,31.63,25.67,46.69,60.94,75.19,86.23a142.882,142.882,0,0,0,29.73,20.27c51.19,26.34,120.36,27.15,183.21,16.93,64-10.39,126.09-29.24,186.65-52.98,91.29-35.78,179.3-82.56,263.98-127.88,25.94-13.89,51.78-27.73,77.61-41.18a1056.149,1056.149,0,0,1,102.66-46.88c27.81-10.77,50.3-19.49,81.83-30.49,12.18-4.2,25.25-9.49,38.25-14.82,36.2-14.84,73.09-29.38,111-42.24,53.7-18.21,109.09-32.65,165.34-41.08C2195.59-13,2346.69,5.96,2480.59,63.22" transform="translate(32.38 483.359)" fill="none" stroke="#015AED" stroke-miterlimit="10" stroke-width="1.5"/>
      <path id="Path-23" data-name="Path" d="M0,457.906c158.93-111.14,343.89-187.39,536.38-218.81,13.12-2.14,26.79-3.76,40-3.67,17.82.12,33.96,2.71,50.45,6.03,41.56,8.34,86.06,21.87,118.52,50.2,30.95,27,44.72,64.5,72.66,91.74a142.488,142.488,0,0,0,29.36,22.02c50.78,28.77,120.33,31.14,183.28,21.76,64.14-9.52,126.24-27.97,186.66-51.74,91.04-35.81,178.43-83.62,262.28-130.96,25.7-14.5,51.28-29.06,76.86-43.31,35.08-19.59,71.06-37.8,102.68-52.18,28.67-13.16,53.48-24.51,85.21-37.32,12.25-4.9,25.19-10.57,38.1-16.23,35.94-15.71,72.62-30.79,110.37-43.98,53.47-18.69,108.71-33.21,164.83-41.89,145.12-22.41,296.05-5.28,431,49.63" transform="translate(24.46 498.074)" fill="none" stroke="#015AED" stroke-miterlimit="10" stroke-width="1.5"/>
      <path id="Path-24" data-name="Path" d="M0,473.646C163.13,361.806,351.65,285.2,547.7,252.7a293.191,293.191,0,0,1,39.48-4.22,289.015,289.015,0,0,1,51.31,3.38c42.46,6.11,86.08,19.17,117.49,48.59,30.26,28.34,42.81,68.02,70.15,97.27a142.658,142.658,0,0,0,28.97,23.77c50.33,31.34,120.3,35.12,183.36,26.61,64.26-8.66,126.39-26.71,186.68-50.51,90.79-35.85,177.54-84.7,260.59-134.05,25.44-15.12,50.76-30.37,76.09-45.45,34.75-20.7,70.11-40.49,102.7-57.47,29.56-15.48,56.67-29.54,88.59-44.14,12.31-5.61,25.12-11.67,37.95-17.64,35.69-16.6,72.15-32.21,109.73-45.73a906.954,906.954,0,0,1,164.34-42.69c144.8-23.04,295.56-7.75,431.54,44.82" transform="translate(16.54 512.734)" fill="none" stroke="#015AED" stroke-miterlimit="10" stroke-width="1.5"/>
      <path id="Path-25" data-name="Path" d="M0,489.447a1435.49,1435.49,0,0,1,559-223.09,390.668,390.668,0,0,1,38.98-4.77,327.121,327.121,0,0,1,52.16.75c43.35,3.98,86.08,16.44,116.47,46.99,29.54,29.68,40.9,71.52,67.63,102.78a144,144,0,0,0,28.58,25.52c49.88,33.89,120.27,39.12,183.44,31.45,64.4-7.8,126.54-25.44,186.69-49.28,90.56-35.88,176.66-85.75,258.9-137.12,25.2-15.74,50.25-31.71,75.33-47.6,34.42-21.82,69.16-43.18,102.72-62.76,30.46-17.8,59.85-34.56,91.97-50.97,12.38-6.31,25.06-12.75,37.8-19.04a1146.332,1146.332,0,0,1,109.09-47.48,882.339,882.339,0,0,1,163.85-43.5c144.47-23.67,295.07-10.2,432.09,40.01" transform="translate(8.63 527.324)" fill="rgba(0,0,0,0)" stroke="#015AED" stroke-miterlimit="10" stroke-width="1.5"/>
      <path id="Path-26" data-name="Path" d="M0,505.327A1496.464,1496.464,0,0,1,570.32,280.1c72.229-12.34,157.32-15.27,206.93,38.17,28.8,31.02,38.99,75.03,65.11,108.3,47.33,60.28,135.06,71.81,211.72,63.56,161.6-17.39,308.37-99.37,443.89-188.25,135.54-88.87,267.08-187.42,418.77-245.26,189.31-72.19,404.54-75.47,596.01-9.12" transform="translate(0.71 541.844)" fill="rgba(0,0,0,0)" stroke="#015AED" stroke-miterlimit="10" stroke-width="1.5"/>
    </g>
  </g>
</svg>
