<svg width="16" height="16" viewBox="0 0 16 16" fill="none" xmlns="http://www.w3.org/2000/svg">
<g clip-path="url(#clip0_1025_18350)">
<path d="M5.04214 8.68797L8.34551 12.0811C8.48034 12.2196 8.54494 12.3812 8.53933 12.5658C8.53371 12.7505 8.46348 12.9121 8.32865 13.0506C8.19382 13.1775 8.03652 13.2439 7.85674 13.2497C7.67697 13.2554 7.51966 13.1891 7.38483 13.0506L2.93539 8.48023C2.86798 8.41098 2.82022 8.33597 2.79213 8.25518C2.76404 8.17439 2.75 8.08783 2.75 7.9955C2.75 7.90317 2.76404 7.81661 2.79213 7.73582C2.82022 7.65503 2.86798 7.58001 2.93539 7.51077L7.38483 2.94043C7.50843 2.81348 7.66292 2.75 7.84831 2.75C8.03371 2.75 8.19382 2.81348 8.32865 2.94043C8.46348 3.07893 8.5309 3.24339 8.5309 3.43382C8.5309 3.62425 8.46348 3.78871 8.32865 3.92721L5.04214 7.30302H12.5758C12.7669 7.30302 12.927 7.36939 13.0562 7.50211C13.1854 7.63483 13.25 7.7993 13.25 7.9955C13.25 8.1917 13.1854 8.35616 13.0562 8.48889C12.927 8.62161 12.7669 8.68797 12.5758 8.68797H5.04214Z" fill="white"/>
</g>
<defs>
<clipPath id="clip0_1025_18350">
<rect width="12" height="12" fill="white" transform="translate(2 2)"/>
</clipPath>
</defs>
</svg>
