<svg width="17" height="22" viewBox="0 0 17 22" fill="none" xmlns="http://www.w3.org/2000/svg">
    <path
        d="M12 1C12 0.447715 11.5523 0 11 0C10.4477 0 10 0.447715 10 1V3C10 3.55228 10.4477 4 11 4C11.5523 4 12 3.55228 12 3V1Z"
        fill="black" />
    <path fill-rule="evenodd" clip-rule="evenodd"
        d="M17 11C17 14.3137 14.3137 17 11 17C7.68629 17 5 14.3137 5 11C5 7.68629 7.68629 5 11 5C14.3137 5 17 7.68629 17 11ZM15 11C15 12.8638 13.7252 14.4299 12 14.874V7.12602C13.7252 7.57006 15 9.13616 15 11ZM10 7.12602V14.874C8.27477 14.4299 7 12.8638 7 11C7 9.13616 8.27477 7.57006 10 7.12602Z"
        fill="black" />
    <path
        d="M11 18C11.5523 18 12 18.4477 12 19V21C12 21.5523 11.5523 22 11 22C10.4477 22 10 21.5523 10 21V19C10 18.4477 10.4477 18 11 18Z"
        fill="black" />
    <path
        d="M1 10C0.447715 10 0 10.4477 0 11C0 11.5523 0.447715 12 1 12H3C3.55228 12 4 11.5523 4 11C4 10.4477 3.55228 10 3 10H1Z"
        fill="black" />
    <path
        d="M6.05025 15.9498C6.44077 16.3403 6.44077 16.9734 6.05025 17.364L4.63603 18.7782C4.24551 19.1687 3.61234 19.1687 3.22182 18.7782C2.8313 18.3877 2.8313 17.7545 3.22182 17.364L4.63603 15.9498C5.02656 15.5592 5.65972 15.5592 6.05025 15.9498Z"
        fill="black" />
    <path
        d="M4.63606 3.22182C4.24554 2.83129 3.61237 2.83129 3.22185 3.22182C2.83132 3.61234 2.83132 4.24551 3.22185 4.63603L4.63606 6.05024C5.02659 6.44077 5.65975 6.44077 6.05028 6.05024C6.4408 5.65972 6.4408 5.02656 6.05028 4.63603L4.63606 3.22182Z"
        fill="black" />
</svg>
    