<svg width="26" height="26" viewBox="0 0 26 26" fill="none" xmlns="http://www.w3.org/2000/svg">
    <path
        d="M25.7911 10.6786C25.6193 9.70821 25.3361 8.775 24.9554 7.89286C23.1864 3.74679 19.3189 0.710357 14.69 0.111428C14.1375 0.0371427 13.5711 0 13 0C12.4289 0 11.8671 0.0371427 11.3146 0.111428C6.68571 0.710357 2.81357 3.74679 1.04464 7.89286C0.663929 8.775 0.380714 9.70821 0.208928 10.6786C0.0696428 11.4307 0 12.2061 0 13C0 13.7939 0.0696428 14.5693 0.208928 15.3214C0.380714 16.2918 0.663929 17.225 1.04464 18.1071C2.81357 22.2532 6.68107 25.2896 11.31 25.8886C11.8625 25.9629 12.4289 26 13 26C13.5711 26 14.1329 25.9629 14.6854 25.8886C19.3143 25.2896 23.1864 22.2532 24.9554 18.1071C25.3361 17.225 25.6193 16.2918 25.7911 15.3214C25.9304 14.5693 26 13.7939 26 13C26 12.2061 25.9304 11.4307 25.7911 10.6786ZM21.84 7.89286H17.6011C17.3132 6.45357 16.8768 4.91214 16.2361 3.315C18.6132 4.10893 20.605 5.75714 21.84 7.89286ZM13 2.87857C13.845 4.61964 14.3975 6.31893 14.7457 7.89286H11.245C11.6814 5.96607 12.3221 4.28536 13 2.87857ZM3.055 15.3214C2.87857 14.5739 2.78571 13.7986 2.78571 13C2.78571 12.2014 2.87857 11.4261 3.055 10.6786H7.99964C7.93 11.4261 7.89286 12.2014 7.89286 13C7.89286 13.7057 7.92071 14.4811 7.995 15.3214H3.055ZM4.16 18.1071H8.39893C8.68679 19.5464 9.12321 21.0879 9.76393 22.685C7.38679 21.8911 5.395 20.2429 4.16 18.1071ZM8.39893 7.89286H4.16C5.395 5.75714 7.38679 4.10893 9.76393 3.315C9.22071 4.67071 8.73786 6.20286 8.39893 7.89286ZM13 23.1214C12.155 21.3804 11.6025 19.6811 11.2543 18.1071H14.755C14.3186 20.0339 13.6779 21.7146 13 23.1214ZM15.2054 15.3214H10.7993C10.7111 14.4764 10.6786 13.6964 10.6786 13C10.6786 12.1968 10.7204 11.4261 10.7946 10.6786H15.2007C15.2889 11.5236 15.3214 12.3036 15.3214 13C15.3214 13.8032 15.2796 14.5739 15.2054 15.3214ZM16.2361 22.685C16.7793 21.3293 17.2621 19.7971 17.6011 18.1071H21.84C20.605 20.2429 18.6132 21.8911 16.2361 22.685ZM22.945 15.3214H18.0004C18.07 14.5739 18.1071 13.7986 18.1071 13C18.1071 12.2943 18.0793 11.5189 18.005 10.6786H22.945C23.1214 11.4261 23.2143 12.2014 23.2143 13C23.2143 13.7986 23.1214 14.5739 22.945 15.3214Z"
        fill="#3D3D3C" />
</svg>
    