<svg width="22" height="22" viewBox="0 0 22 22" fill="none" xmlns="http://www.w3.org/2000/svg">
    <path
        d="M11 0C11.5523 0 12 0.447715 12 1V3C12 3.55228 11.5523 4 11 4C10.4477 4 10 3.55228 10 3V1C10 0.447715 10.4477 0 11 0Z"
        fill="black" />
    <path fill-rule="evenodd" clip-rule="evenodd"
        d="M5 11C5 7.68629 7.68629 5 11 5C14.3137 5 17 7.68629 17 11C17 14.3137 14.3137 17 11 17C7.68629 17 5 14.3137 5 11ZM11 7C8.79086 7 7 8.79086 7 11C7 13.2091 8.79086 15 11 15C13.2091 15 15 13.2091 15 11C15 8.79086 13.2091 7 11 7Z"
        fill="black" />
    <path
        d="M12 19C12 18.4477 11.5523 18 11 18C10.4477 18 10 18.4477 10 19V21C10 21.5523 10.4477 22 11 22C11.5523 22 12 21.5523 12 21V19Z"
        fill="black" />
    <path
        d="M0 11C0 10.4477 0.447715 10 1 10H3C3.55228 10 4 10.4477 4 11C4 11.5523 3.55228 12 3 12H1C0.447715 12 0 11.5523 0 11Z"
        fill="black" />
    <path
        d="M19 10.25C18.4477 10.25 18 10.6977 18 11.25C18 11.8023 18.4477 12.25 19 12.25H21C21.5523 12.25 22 11.8023 22 11.25C22 10.6977 21.5523 10.25 21 10.25H19Z"
        fill="black" />
    <path
        d="M18.7782 3.22182C19.1687 3.61234 19.1687 4.24551 18.7782 4.63603L17.3639 6.05024C16.9734 6.44077 16.3402 6.44077 15.9497 6.05024C15.5592 5.65972 15.5592 5.02656 15.9497 4.63603L17.3639 3.22182C17.7545 2.83129 18.3876 2.83129 18.7782 3.22182Z"
        fill="black" />
    <path
        d="M6.05025 17.364C6.44077 16.9734 6.44077 16.3403 6.05025 15.9498C5.65972 15.5592 5.02656 15.5592 4.63603 15.9498L3.22182 17.364C2.8313 17.7545 2.8313 18.3877 3.22182 18.7782C3.61234 19.1687 4.24551 19.1687 4.63603 18.7782L6.05025 17.364Z"
        fill="black" />
    <path
        d="M3.22185 3.22182C3.61237 2.83129 4.24554 2.83129 4.63606 3.22182L6.05028 4.63603C6.4408 5.02656 6.4408 5.65972 6.05028 6.05024C5.65975 6.44077 5.02659 6.44077 4.63606 6.05024L3.22185 4.63603C2.83132 4.24551 2.83132 3.61234 3.22185 3.22182Z"
        fill="black" />
    <path
        d="M17.1872 16.1265C16.7967 15.736 16.1635 15.736 15.773 16.1265C15.3825 16.517 15.3825 17.1502 15.773 17.5407L17.1872 18.9549C17.5777 19.3455 18.2109 19.3455 18.6014 18.9549C18.9919 18.5644 18.9919 17.9312 18.6014 17.5407L17.1872 16.1265Z"
        fill="black" />
</svg>
    