<svg width="5179" height="3619" viewBox="0 0 5179 3619" fill="none" xmlns="http://www.w3.org/2000/svg">
<g opacity="0.4" filter="url(#filter0_f_29_57438)">
<path d="M2718.14 1540.49C3239.19 1690.59 3699.06 1586.45 3970.29 1487.48C4124.39 1431.24 4224.29 1283.44 4218.77 1121.41L4187.59 203.415C4185.73 148.457 4172.01 94.4818 4146.52 45.6151C4077.88 -86.0788 3897.05 -334.96 3446.59 -563.205C3328.52 -623.022 3186.64 -617.135 3073.94 -547.743C2643.92 -282.966 2484.34 -19.9609 2426.84 116.967C2405.49 167.776 2396.29 222.703 2398.99 277.626L2444.08 1197.29C2451.91 1357.73 2561.99 1495.52 2718.14 1540.49Z" fill="#015AED"/>
<path d="M2718.81 1538.19L2718.14 1540.49L2718.81 1538.19C2563.62 1493.5 2454.25 1356.57 2446.47 1197.17L2401.38 277.509C2398.7 222.93 2407.85 168.362 2429.05 117.895L2426.84 116.967L2429.05 117.895C2486.34 -18.5485 2645.59 -281.174 3075.19 -545.702C3187.19 -614.657 3328.18 -620.507 3445.5 -561.067C3895.55 -333.036 4076 -84.505 4144.4 46.723L4146.52 45.6151L4144.4 46.7234C4169.71 95.2603 4183.34 148.883 4185.19 203.496L4187.11 203.431L4185.19 203.496L4216.38 1121.49L4218.61 1121.41L4216.38 1121.49C4221.86 1282.48 4122.6 1429.34 3969.47 1485.23C3698.52 1584.1 3239.2 1688.1 2718.81 1538.19Z" stroke="#015AED" stroke-width="4.79388"/>
</g>
<g opacity="0.4" filter="url(#filter1_f_29_57438)">
<path d="M3308.53 2446.16C3899.75 2379.24 4288.75 2048.74 4497.1 1810.74C4615.47 1675.51 4629.72 1460.1 4533.39 1276.75L3987.79 237.956C3955.13 175.763 3911.48 120.139 3859.26 75.7749C3718.55 -43.8023 3402.91 -246.334 2836.5 -301.455C2688.05 -315.896 2553.3 -244.033 2482.59 -112.707C2212.81 388.373 2205.16 763.323 2226.07 946.791C2233.82 1014.88 2255.7 1082.11 2289.15 1143.88L2849.22 2178.21C2946.9 2358.67 3131.35 2466.23 3308.53 2446.16Z" fill="#015AED"/>
<path d="M4495.3 1809.16C4287.17 2046.9 3898.68 2376.95 3308.26 2443.78L3308.53 2446.16L3308.26 2443.78C3132.23 2463.72 2948.63 2356.84 2851.33 2177.07L2291.26 1142.74C2257.94 1081.22 2236.17 1014.28 2228.45 946.52L2226.07 946.791L2228.45 946.519C2207.59 763.511 2215.17 389.056 2484.7 -111.571C2554.96 -242.046 2688.78 -313.416 2836.27 -299.069C3402.17 -243.999 3717.35 -41.6768 3857.71 77.6013L3859.26 75.7774L3857.71 77.6017C3909.68 121.755 3953.14 177.132 3985.67 239.07L3987.79 237.956L3985.67 239.071L4531.27 1277.87C4627.23 1460.52 4612.89 1674.81 4495.3 1809.16Z" stroke="#015AED" stroke-width="4.79388"/>
</g>
<g opacity="0.4" filter="url(#filter2_f_29_57438)">
<path d="M1960.59 845.425C2018.76 1467.87 2324.08 1917.65 2544.45 2167.13C2669.67 2308.87 2870.36 2353.9 3041.96 2279.79L4014.18 1859.98C4072.39 1834.86 4124.55 1797.42 4166.28 1749.5C4278.74 1620.39 4469.79 1321.56 4525.2 741.988C4539.72 590.086 4473.69 440.272 4351.78 348.501C3886.61 -1.63049 3537.14 -62.2424 3365.97 -66.3335C3302.45 -67.8654 3239.62 -54.6262 3181.8 -28.6169L2213.64 406.811C2044.72 482.741 1943.14 658.891 1960.59 845.425Z" fill="#015AED"/>
<path d="M3041.01 2277.59L3041.96 2279.79L3041.01 2277.59C2870.37 2351.29 2670.78 2306.51 2546.25 2165.55C2326.07 1916.29 2021.09 1466.96 1962.98 845.202C1945.62 659.672 2046.66 484.5 2214.63 408.997L3182.79 -26.4309C3240.29 -52.2987 3302.76 -65.4604 3365.91 -63.9372C3536.56 -59.8586 3885.54 0.570221 4350.34 350.416C4471.58 441.685 4537.25 590.688 4522.82 741.76C4467.44 1320.86 4276.59 1619.22 4164.47 1747.92L4166.27 1749.49L4164.47 1747.92C4122.98 1795.56 4071.12 1832.79 4013.23 1857.78L4014.18 1859.98L4013.23 1857.78L3041.01 2277.59Z" stroke="#015AED" stroke-width="4.79388"/>
</g>
<g opacity="0.4" filter="url(#filter3_f_29_57438)">
<path d="M3619.63 -95.7881C3164.53 -152.613 2794.01 -5.07626 2580.42 113.313C2459.08 180.585 2395.06 317.223 2421 451.88L2567.88 1214.77C2576.67 1260.44 2595.24 1303.73 2622.96 1341.21C2697.65 1442.2 2881.49 1626.34 3287.9 1757.75C3394.42 1792.19 3512.19 1768.6 3597.22 1695.79C3921.65 1417.96 4020.37 1177.22 4050.38 1055.24C4061.53 1009.98 4061.99 962.878 4052.51 917.344L3893.79 154.893C3866.13 21.8713 3756.01 -78.7697 3619.63 -95.7881Z" fill="#015AED"/>
<path d="M2423.35 451.427L2421.15 451.85L2423.35 451.427C2397.61 317.797 2461.14 182.183 2581.59 115.41C2794.91 -2.83433 3164.91 -150.15 3619.33 -93.4096L3619.63 -95.7881L3619.33 -93.4096C3754.72 -76.516 3863.99 23.3795 3891.44 155.381L4050.16 917.832C4059.57 963.029 4059.12 1009.77 4048.06 1054.67C4018.16 1176.13 3919.73 1416.45 3595.66 1693.97C3511.26 1766.24 3394.36 1789.65 3288.64 1755.47C2882.68 1624.21 2699.26 1440.35 2624.89 1339.78L2622.96 1341.21L2624.89 1339.78C2597.38 1302.6 2578.96 1259.65 2570.23 1214.31L2567.88 1214.77L2570.23 1214.31L2423.35 451.427Z" stroke="#015AED" stroke-width="4.79387"/>
</g>
<g opacity="0.4" filter="url(#filter4_f_29_57438)">
<path d="M1419.11 -1102.98C1032.37 -572.885 903.366 -9.63128 860.977 337.711C836.905 535.056 921.21 707.889 1069.29 766.959L1908.17 1101.71C1958.38 1121.76 2013.46 1127.97 2069.64 1118.79C2221.02 1094.07 2531.84 989.446 2954.56 570.857C3065.35 461.145 3128.7 297.947 3120.95 142.218C3091.35 -451.953 2932.54 -738.881 2837.47 -859.26C2802.2 -903.944 2757.36 -936.518 2706.77 -955.604L1859.67 -1275.27C1711.9 -1331.08 1535 -1261.85 1419.11 -1102.98Z" fill="#015AED"/>
</g>
<g opacity="0.7" filter="url(#filter5_f_29_57438)">
<path d="M4298.56 740.405C3807.72 192.121 3203.05 -15.3786 2819.21 -93.8944C2601.12 -138.489 2379.04 -37.3358 2267.97 155.91L1638.61 1250.64C1600.93 1316.18 1577.6 1389.05 1571.51 1464.38C1555.07 1667.36 1582.8 2087.53 1935.78 2676.59C2028.3 2830.98 2195.84 2925.65 2375.82 2925.26C3062.54 2923.72 3436.79 2730.7 3602.18 2611.89C3663.57 2567.82 3713.96 2510.24 3750.66 2444.14L4365.23 1337.51C4472.49 1144.47 4445.66 904.704 4298.56 740.405Z" fill="#0A4EFD"/>
<path d="M2818.73 -91.5461C3202.27 -13.0912 3806.4 194.235 4296.77 742.004L4298.54 740.421L4296.77 742.004C4443.2 905.541 4469.9 1144.2 4363.14 1336.35L3748.56 2442.98C3712.03 2508.78 3661.87 2566.09 3600.78 2609.95C3435.81 2728.45 3062.06 2921.33 2375.82 2922.86C2196.68 2923.26 2029.92 2829.02 1937.83 2675.36C1585.1 2086.71 1557.5 1667.03 1573.9 1464.57C1579.96 1389.61 1603.17 1317.08 1640.69 1251.84L2270.05 157.104L2267.97 155.91L2270.05 157.104C2380.61 -35.2535 2601.66 -135.932 2818.73 -91.5461Z" stroke="#0A4EFD" stroke-width="4.79388"/>
</g>
<g opacity="0.7" filter="url(#filter6_f_29_57438)">
<path d="M4388.56 908.637C4110.52 288.476 3636.91 -64.1912 3321.37 -241.297C3142.08 -341.908 2918.47 -315.531 2766.67 -176.946L1906.6 608.096C1855.11 655.089 1814.18 712.577 1787.73 777.076C1716.42 950.864 1623.12 1328.01 1768.52 1945.19C1806.63 2106.95 1927.44 2237.35 2085.82 2287.68C2690.12 2479.71 3073.28 2415.43 3252 2357.58C3318.33 2336.12 3378.77 2299.7 3429.55 2251.94L4279.94 1452.27C4428.33 1312.79 4471.9 1094.48 4388.56 908.637Z" fill="black"/>
</g>
<g opacity="0.7" filter="url(#filter7_f_29_57438)">
<path d="M2273.75 2602.52C2873.11 2652.73 3362.34 2459.28 3644.57 2307.45C3804.92 2221.18 3890.17 2053.37 3856.86 1891.61L3668.23 975.181C3656.94 920.315 3632.75 868.726 3596.46 824.543C3498.69 705.464 3257.62 490.291 2722.89 347.923C2582.75 310.615 2427.4 343.928 2314.87 435.421C1885.54 784.523 1753.89 1079.62 1713.54 1228.32C1698.55 1283.5 1697.65 1340.47 1709.85 1395.14L1914.08 2310.56C1949.67 2470.28 2094.13 2587.48 2273.75 2602.52Z" fill="#92B8F7"/>
<path d="M3854.51 1892.1L3854.51 1892.1C3887.58 2052.69 3802.98 2219.51 3643.44 2305.34C3361.45 2457.04 2872.69 2650.29 2273.95 2600.13C2095.23 2585.17 1951.75 2468.6 1916.42 2310.04L1712.19 1394.62C1700.07 1340.32 1700.97 1283.75 1715.85 1228.95L1713.54 1228.32L1715.85 1228.95C1756.05 1080.79 1887.39 786.102 2316.38 437.281C2428.31 346.272 2582.87 313.128 2722.28 350.24C3256.57 492.493 3497.19 707.414 3594.61 826.064L3596.46 824.546L3594.61 826.065C3630.65 869.941 3654.67 921.172 3665.88 975.664L3668.23 975.181L3665.88 975.664L3854.51 1892.1Z" stroke="#92B8F7" stroke-width="4.79388"/>
</g>
<g opacity="0.7" filter="url(#filter8_f_29_57438)">
<path d="M4429.63 978.822C4151.58 358.661 3677.98 5.99334 3362.44 -171.112C3183.15 -271.724 2959.54 -245.347 2807.74 -106.762L1947.67 678.28C1896.18 725.274 1855.25 782.762 1828.8 847.261C1757.49 1021.05 1664.18 1398.19 1809.58 2015.38C1847.7 2177.13 1968.51 2307.53 2126.89 2357.87C2731.19 2549.9 3114.35 2485.62 3293.07 2427.76C3359.4 2406.31 3419.84 2369.88 3470.62 2322.12L4321.01 1522.45C4469.4 1382.97 4512.97 1164.67 4429.63 978.822Z" fill="black"/>
</g>
<g opacity="0.8" filter="url(#filter9_f_29_57438)">
<path d="M4396.47 975.212C4118.42 355.052 3644.82 2.38397 3329.28 -174.721C3149.99 -275.333 2926.37 -248.956 2774.58 -110.371L1914.51 674.671C1863.02 721.665 1822.09 779.153 1795.64 843.651C1724.33 1017.44 1631.02 1394.58 1776.42 2011.77C1814.54 2173.52 1935.35 2303.92 2093.73 2354.26C2698.03 2546.29 3081.19 2482.01 3259.91 2424.15C3326.24 2402.7 3386.68 2366.27 3437.46 2318.51L4287.85 1518.84C4436.24 1379.37 4479.81 1161.06 4396.47 975.212Z" fill="black"/>
</g>
<g opacity="0.8" filter="url(#filter10_f_29_57438)">
<path d="M4399.74 945.225C4121.69 325.064 3648.09 -27.6033 3332.55 -204.709C3153.26 -305.32 2929.64 -278.943 2777.84 -140.358L1917.78 644.683C1866.29 691.677 1825.36 749.165 1798.91 813.664C1727.6 987.452 1634.29 1364.59 1779.69 1981.78C1817.81 2143.54 1938.62 2273.94 2097 2324.27C2701.3 2516.3 3084.46 2452.02 3263.18 2394.17C3329.5 2372.71 3389.95 2336.29 3440.73 2288.52L4291.12 1488.86C4439.51 1349.38 4483.08 1131.07 4399.74 945.225Z" fill="black"/>
</g>
<g opacity="0.9" filter="url(#filter11_f_29_57438)">
<path d="M4448.13 1050.65C4170.09 430.484 3696.49 77.8166 3380.94 -99.2888C3201.66 -199.9 2978.04 -173.523 2826.24 -34.9385L1966.18 750.103C1914.68 797.097 1873.76 854.585 1847.31 919.084C1775.99 1092.87 1682.69 1470.01 1828.09 2087.2C1866.2 2248.96 1987.01 2379.36 2145.39 2429.69C2749.7 2621.72 3132.85 2557.44 3311.57 2499.59C3377.9 2478.13 3438.34 2441.71 3489.12 2393.94L4339.52 1594.28C4487.9 1454.8 4531.47 1236.49 4448.13 1050.65Z" fill="black"/>
</g>
<g opacity="0.9" filter="url(#filter12_f_29_57438)">
<path d="M4441.44 1011.11C4157.97 377.98 3674.52 18.2062 3352.36 -162.402C3169.32 -265.003 2940.89 -237.874 2785.72 -96.2082L1906.56 706.285C1853.92 754.323 1812.07 813.07 1785 878.965C1712.01 1056.51 1616.39 1441.77 1764.38 2071.97C1803.17 2237.14 1926.45 2370.21 2088.19 2421.49C2705.27 2617.09 3096.7 2551.12 3279.29 2491.88C3347.06 2469.91 3408.83 2432.66 3460.74 2383.83L4330.03 1566.41C4481.72 1423.84 4526.41 1200.84 4441.44 1011.11Z" fill="black"/>
</g>
<path d="M4475.16 1007.84C4194.9 381.86 3709.48 132.189 3390.97 -46.3728C3209.99 -147.812 3015.25 -201.451 2861.82 -61.3795L1968.87 706.521C1916.83 754.019 1875.45 812.105 1848.68 877.257C1776.51 1052.81 1640.05 1472.53 1786.36 2095.62C1824.71 2258.93 1946.6 2390.5 2106.51 2441.19C2716.63 2634.57 3145.54 2530.51 3326.08 2471.93C3393.08 2450.21 3454.15 2413.38 3505.48 2365.11L4364.99 1556.88C4514.97 1415.91 4559.16 1195.43 4475.16 1007.84Z" fill="black"/>
<path d="M4431.43 979.02C4153.38 358.859 3679.78 6.19159 3364.24 -170.914C3184.95 -271.525 2961.33 -245.148 2809.53 -106.564L1949.47 678.478C1897.98 725.472 1857.05 782.96 1830.6 847.459C1759.29 1021.25 1665.98 1398.39 1811.38 2015.57C1849.5 2177.33 1970.31 2307.73 2128.69 2358.07C2732.99 2550.1 3116.15 2485.82 3294.87 2427.96C3361.19 2406.5 3421.64 2370.08 3472.42 2322.32L4322.81 1522.65C4471.2 1383.17 4514.77 1164.86 4431.43 979.02Z" fill="black"/>
<defs>
<filter id="filter0_f_29_57438" x="2161.43" y="-841.363" width="2294.67" height="2694.32" filterUnits="userSpaceOnUse" color-interpolation-filters="sRGB">
<feFlood flood-opacity="0" result="BackgroundImageFix"/>
<feBlend mode="normal" in="SourceGraphic" in2="BackgroundImageFix" result="shape"/>
<feGaussianBlur stdDeviation="118.553" result="effect1_foregroundBlur_29_57438"/>
</filter>
<filter id="filter1_f_29_57438" x="1775.58" y="-746.525" width="3264.53" height="3638.32" filterUnits="userSpaceOnUse" color-interpolation-filters="sRGB">
<feFlood flood-opacity="0" result="BackgroundImageFix"/>
<feBlend mode="normal" in="SourceGraphic" in2="BackgroundImageFix" result="shape"/>
<feGaussianBlur stdDeviation="221.621" result="effect1_foregroundBlur_29_57438"/>
</filter>
<filter id="filter2_f_29_57438" x="1515.41" y="-509.695" width="3455.01" height="3268.01" filterUnits="userSpaceOnUse" color-interpolation-filters="sRGB">
<feFlood flood-opacity="0" result="BackgroundImageFix"/>
<feBlend mode="normal" in="SourceGraphic" in2="BackgroundImageFix" result="shape"/>
<feGaussianBlur stdDeviation="221.621" result="effect1_foregroundBlur_29_57438"/>
</filter>
<filter id="filter3_f_29_57438" x="2178.18" y="-345.46" width="2118.14" height="2355.89" filterUnits="userSpaceOnUse" color-interpolation-filters="sRGB">
<feFlood flood-opacity="0" result="BackgroundImageFix"/>
<feBlend mode="normal" in="SourceGraphic" in2="BackgroundImageFix" result="shape"/>
<feGaussianBlur stdDeviation="118.552" result="effect1_foregroundBlur_29_57438"/>
</filter>
<filter id="filter4_f_29_57438" x="0.382751" y="-2150.89" width="3977.73" height="4130.35" filterUnits="userSpaceOnUse" color-interpolation-filters="sRGB">
<feFlood flood-opacity="0" result="BackgroundImageFix"/>
<feBlend mode="normal" in="SourceGraphic" in2="BackgroundImageFix" result="shape"/>
<feGaussianBlur stdDeviation="428.261" result="effect1_foregroundBlur_29_57438"/>
</filter>
<filter id="filter5_f_29_57438" x="1175.39" y="-496.899" width="3647.67" height="3814.73" filterUnits="userSpaceOnUse" color-interpolation-filters="sRGB">
<feFlood flood-opacity="0" result="BackgroundImageFix"/>
<feBlend mode="normal" in="SourceGraphic" in2="BackgroundImageFix" result="shape"/>
<feGaussianBlur stdDeviation="196.285" result="effect1_foregroundBlur_29_57438"/>
</filter>
<filter id="filter6_f_29_57438" x="1616.68" y="-377.202" width="2888.91" height="2868.72" filterUnits="userSpaceOnUse" color-interpolation-filters="sRGB">
<feFlood flood-opacity="0" result="BackgroundImageFix"/>
<feBlend mode="normal" in="SourceGraphic" in2="BackgroundImageFix" result="shape"/>
<feGaussianBlur stdDeviation="37.584" result="effect1_foregroundBlur_29_57438"/>
</filter>
<filter id="filter7_f_29_57438" x="1468.16" y="99.6333" width="2629.12" height="2744.26" filterUnits="userSpaceOnUse" color-interpolation-filters="sRGB">
<feFlood flood-opacity="0" result="BackgroundImageFix"/>
<feBlend mode="normal" in="SourceGraphic" in2="BackgroundImageFix" result="shape"/>
<feGaussianBlur stdDeviation="116.635" result="effect1_foregroundBlur_29_57438"/>
</filter>
<filter id="filter8_f_29_57438" x="1657.75" y="-307.018" width="2888.91" height="2868.72" filterUnits="userSpaceOnUse" color-interpolation-filters="sRGB">
<feFlood flood-opacity="0" result="BackgroundImageFix"/>
<feBlend mode="normal" in="SourceGraphic" in2="BackgroundImageFix" result="shape"/>
<feGaussianBlur stdDeviation="37.584" result="effect1_foregroundBlur_29_57438"/>
</filter>
<filter id="filter9_f_29_57438" x="1662.17" y="-273.043" width="2813.75" height="2793.55" filterUnits="userSpaceOnUse" color-interpolation-filters="sRGB">
<feFlood flood-opacity="0" result="BackgroundImageFix"/>
<feBlend mode="normal" in="SourceGraphic" in2="BackgroundImageFix" result="shape"/>
<feGaussianBlur stdDeviation="18.792" result="effect1_foregroundBlur_29_57438"/>
</filter>
<filter id="filter10_f_29_57438" x="1665.44" y="-303.03" width="2813.75" height="2793.55" filterUnits="userSpaceOnUse" color-interpolation-filters="sRGB">
<feFlood flood-opacity="0" result="BackgroundImageFix"/>
<feBlend mode="normal" in="SourceGraphic" in2="BackgroundImageFix" result="shape"/>
<feGaussianBlur stdDeviation="18.792" result="effect1_foregroundBlur_29_57438"/>
</filter>
<filter id="filter11_f_29_57438" x="1733.88" y="-177.572" width="2773.67" height="2753.47" filterUnits="userSpaceOnUse" color-interpolation-filters="sRGB">
<feFlood flood-opacity="0" result="BackgroundImageFix"/>
<feBlend mode="normal" in="SourceGraphic" in2="BackgroundImageFix" result="shape"/>
<feGaussianBlur stdDeviation="8.77279" result="effect1_foregroundBlur_29_57438"/>
</filter>
<filter id="filter12_f_29_57438" x="1667.41" y="-243.41" width="2835.8" height="2814.84" filterUnits="userSpaceOnUse" color-interpolation-filters="sRGB">
<feFlood flood-opacity="0" result="BackgroundImageFix"/>
<feBlend mode="normal" in="SourceGraphic" in2="BackgroundImageFix" result="shape"/>
<feGaussianBlur stdDeviation="9.58775" result="effect1_foregroundBlur_29_57438"/>
</filter>
</defs>
</svg>
